<svg width="25" height="24" viewBox="0 0 25 24" fill="none" xmlns="http://www.w3.org/2000/svg">
<g id="search_line 1" clip-path="url(#clip0_2291_1425)">
<g id="&#233;&#161;&#181;&#233;&#157;&#162;-1">
<g id="File">
<g id="search_line">
<path id="&#229;&#189;&#162;&#231;&#138;&#182;" fill-rule="evenodd" clip-rule="evenodd" d="M11 2C6.30558 2 2.5 5.80558 2.5 10.5C2.5 15.1944 6.30558 19 11 19C12.9869 19 14.8146 18.3183 16.2619 17.176L19.9142 20.8283C20.3047 21.2188 20.9379 21.2188 21.3284 20.8283C21.7189 20.4378 21.7189 19.8046 21.3284 19.4141L17.6761 15.7618C18.8183 14.3145 19.5 12.4868 19.5 10.5C19.5 5.80558 15.6944 2 11 2ZM4.5 10.5C4.5 6.91015 7.41015 4 11 4C14.5899 4 17.5 6.91015 17.5 10.5C17.5 14.0899 14.5899 17 11 17C7.41015 17 4.5 14.0899 4.5 10.5Z" fill="#014A2E"/>
</g>
</g>
</g>
</g>
<defs>
<clipPath id="clip0_2291_1425">
<rect width="24" height="24" fill="white" transform="translate(0.5)"/>
</clipPath>
</defs>
</svg>
